<svg class="logo-image" width="402" height="35" viewBox="0 0 402 35" fill="none" xmlns="http://www.w3.org/2000/svg">
                                    <path fill-rule="evenodd" clip-rule="evenodd" d="M21.4948 11.0159C21.1129 10.7063 20.6449 10.3787 20.1746 10.2341L19.4232 25.5593C19.9193 22.5336 25.8036 13.3095 21.4948 11.0159" fill="#006BA6"></path>
                                    <path fill-rule="evenodd" clip-rule="evenodd" d="M15.2595 10.0912L17.4778 25.3871L19.6412 10.1025C18.3781 9.60315 16.7186 9.53649 15.2595 10.0912" fill="#006BA6"></path>
                                    <path fill-rule="evenodd" clip-rule="evenodd" d="M13.4219 11.0004C9.11309 13.2669 15.0064 22.5588 15.4946 25.5427L14.7432 10.2186C14.2729 10.3621 13.8026 10.6908 13.4219 11.0004" fill="#006BA6"></path>
                                    <path fill-rule="evenodd" clip-rule="evenodd" d="M5.81819 12.4547C8.33541 16.9187 10.9053 21.6991 13.4225 25.9801C12.1325 20.4608 11.6477 11.3847 5.81819 12.4547" fill="#006BA6"></path>
                                    <path fill-rule="evenodd" clip-rule="evenodd" d="M1.34782 14.6956L11.6687 26.7714L5.26922 12.5218C3.60414 12.5828 2.1966 13.4426 1.34782 14.6956" fill="#006BA6"></path>
                                    <path fill-rule="evenodd" clip-rule="evenodd" d="M22.9372 17.9594L21.2284 26.2367C23.4366 22.3726 25.6101 18.5627 27.7354 14.6953C25.6952 14.8478 23.6102 15.6432 22.9372 17.9594" fill="#006BA6"></path>
                                    <path fill-rule="evenodd" clip-rule="evenodd" d="M28.3452 14.6956L22.9054 26.9613L32.4626 16.4186C31.3686 15.2583 29.9465 14.7205 28.3452 14.6956" fill="#006BA6"></path>
                                    <mask id="mask0_7_705" style="mask-type:luminance" maskUnits="userSpaceOnUse" x="0" y="15" width="11" height="14">
                                    <path fill-rule="evenodd" clip-rule="evenodd" d="M-7.62939e-06 15.1046H10.0927V28.0674H-7.62939e-06V15.1046Z" fill="white"></path>
                                    </mask>
                                    <g mask="url(#mask0_7_705)">
                                    <path fill-rule="evenodd" clip-rule="evenodd" d="M0.0148648 20.1573C3.37415 22.7752 6.70992 25.4676 10.0927 28.0674L1.01481 15.1046C0.17723 16.5678 -0.0679975 18.2761 0.0148648 20.1573" fill="#006BA6"></path>
                                    </g>
                                    <path fill-rule="evenodd" clip-rule="evenodd" d="M33.6356 17.9231C33.4307 17.514 33.1921 17.1367 32.8383 16.8113L24.6092 28.2024C27.8744 25.7382 31.0422 23.2198 34.1932 20.7093C34.2234 19.7161 34.0667 18.7467 33.6356 17.9231" fill="#006BA6"></path>
                                    <path fill-rule="evenodd" clip-rule="evenodd" d="M0.0384428 25.4271L8.82185 29.5216C5.91383 26.5874 2.97334 23.7391 0.037323 20.8478L0.0384428 25.4271Z" fill="#006BA6"></path>
                                    <path fill-rule="evenodd" clip-rule="evenodd" d="M34.1987 25.7271V21.55L25.9035 29.6748C28.7231 28.3766 31.3243 27.0999 34.1987 25.7271" fill="#006BA6"></path>
                                    <path fill-rule="evenodd" clip-rule="evenodd" d="M0.0148621 29.4885C2.65974 30.0772 5.54088 30.8308 7.93045 31.3482L0.0148621 26.0651V29.4885Z" fill="#006BA6"></path>
                                    <path fill-rule="evenodd" clip-rule="evenodd" d="M34.1988 29.7312V26.519C31.714 28.1178 29.1341 29.7741 26.8308 31.4294L34.1988 29.7312Z" fill="#006BA6"></path>
                                    <path fill-rule="evenodd" clip-rule="evenodd" d="M0.0148621 33.4959H7.74457L0.0148621 30.1482V33.4959Z" fill="#006BA6"></path>
                                    <path fill-rule="evenodd" clip-rule="evenodd" d="M34.1987 33.496V30.4521C31.6602 31.5549 29.4476 32.4712 27.0491 33.496H34.1987Z" fill="#006BA6"></path>
                                    <path fill-rule="evenodd" clip-rule="evenodd" d="M31.5245 10.6353C31.6141 5.95769 24.7902 5.92606 24.9168 10.5923C24.853 14.9016 31.6869 15.1479 31.5245 10.6353" fill="#006BA6"></path>
                                    <path fill-rule="evenodd" clip-rule="evenodd" d="M31.5245 10.6087C31.5267 10.6211 31.5245 10.6279 31.5245 10.6403V10.6087Z" fill="#006BA6"></path>
                                    <path fill-rule="evenodd" clip-rule="evenodd" d="M9.43769 8.20893C9.65492 3.51214 2.44814 3.70309 2.72472 8.21797C2.47949 12.8786 9.87552 12.9464 9.43769 8.20893" fill="#006BA6"></path>
                                    <mask id="mask1_7_705" style="mask-type:luminance" maskUnits="userSpaceOnUse" x="13" y="1" width="9" height="9">
                                    <path fill-rule="evenodd" clip-rule="evenodd" d="M13.6889 1.20691H21.2915V9.11537H13.6889V1.20691Z" fill="white"></path>
                                    </mask>
                                    <g mask="url(#mask1_7_705)">
                                    <path fill-rule="evenodd" clip-rule="evenodd" d="M17.4849 9.1137C22.9897 9.25267 22.1095 0.638705 17.4939 1.23639C13.1223 0.766378 11.7674 8.90807 17.4849 9.1137" fill="#006BA6"></path>
                                    </g>
                                    <path fill-rule="evenodd" clip-rule="evenodd" d="M74.3487 33.3172H77.4908V14.9515H74.3487V33.3172Z" fill="#006BA6"></path>
                                    <path fill-rule="evenodd" clip-rule="evenodd" d="M62.4804 25.4711L64.9013 17.8639H64.9752L67.4924 25.4711H62.4804ZM63.2026 14.9511L57.8659 30.5306L52.6657 23.9119L59.597 14.9568H55.9779L49.546 23.6735V14.9511H46.4006L46.4029 33.3168H49.546V24.2633L56.2064 33.3202H56.9096L56.9051 33.336H59.9822L61.6663 28.0348H68.3401L70.0892 33.3168H73.3723L67.0972 14.9511H63.2026Z" fill="#006BA6"></path>
                                    <path fill-rule="evenodd" clip-rule="evenodd" d="M179.468 28.2417L176.312 14.94H170.816V33.3034H173.902V17.6449L177.895 33.3034H181.048C181.087 33.3034 185.017 17.6697 185.017 17.6697V33.3034H188.081V14.9377H182.705L179.468 28.2417Z" fill="#006BA6"></path>
                                    <path fill-rule="evenodd" clip-rule="evenodd" d="M195.251 25.4447L197.67 17.8419H197.744L200.269 25.4447H195.251ZM195.972 14.928L189.673 33.3129H192.75L194.435 28.0106H201.119L202.879 33.3175H206.162L199.859 14.928H195.972Z" fill="#006BA6"></path>
                                    <path fill-rule="evenodd" clip-rule="evenodd" d="M218.916 29.1111L211.684 14.927L207.54 14.9451L207.55 33.304H210.519V19.4611L217.654 33.304H221.948V14.9236H218.916V29.1111Z" fill="#006BA6"></path>
                                    <path fill-rule="evenodd" clip-rule="evenodd" d="M278.458 30.6327H270.988V25.4444H276.515V22.7814L270.988 22.7791V17.5829C271.709 17.5988 277.824 17.5829 277.824 17.5829V14.9199C275.968 14.9154 267.876 14.9323 267.876 14.9323L267.874 33.3093L278.465 33.3127L278.458 30.6327Z" fill="#006BA6"></path>
                                    <path fill-rule="evenodd" clip-rule="evenodd" d="M249.816 14.9197L249.82 14.9242H249.244V29.2586L242.013 14.9355H237.87V30.6325H228.329V25.4442H233.855V22.7811L228.329 22.7789V17.5827C229.048 17.5985 235.16 17.5827 235.16 17.5827V14.9197C233.307 14.9151 225.217 14.9321 225.217 14.9321L225.212 33.3091L240.606 33.3034H240.852V19.3148L247.98 33.3034H252.278V17.7126H257.796V33.3125H260.952V17.7126H266.341L266.325 14.9197H249.816Z" fill="#006BA6"></path>
                                    <path fill-rule="evenodd" clip-rule="evenodd" d="M158.905 22.8087V17.6283C161.082 17.5391 165.273 17.382 164.903 20.1829C165.284 23.1499 161.141 22.8652 158.905 22.8087M166.267 24.0583C168.483 22.4528 168.527 17.8871 166.303 16.2691C164.647 14.3958 158.476 15.0421 155.75 14.937V22.6957H155.746V30.6329H146.135V25.4446H151.665V22.7816L146.135 22.7793V17.5832C146.855 17.599 152.973 17.5832 152.973 17.5832V14.9201C151.113 14.9156 143.022 14.9314 143.022 14.9314V33.3095L158.904 33.3039V25.4977H160.465C161.911 27.7913 164.975 33.3321 164.975 33.3321H168.728L163.837 25.2401C164.868 25.0051 165.636 24.6165 166.267 24.0583" fill="#006BA6"></path>
                                    <path fill-rule="evenodd" clip-rule="evenodd" d="M109.296 22.8088V17.6284C111.474 17.538 115.663 17.3832 115.294 20.183C115.674 23.1488 111.532 22.8664 109.296 22.8088M116.66 24.0584C118.877 22.4517 118.918 17.8871 116.69 16.2692C115.038 14.3959 108.864 15.0433 106.142 14.9371V22.6958H106.134V30.633H96.5263V25.4447H102.057V22.7816L96.5263 22.7794V17.5832C97.2452 17.599 103.362 17.5832 103.362 17.5832V14.9202C101.508 14.9156 93.4112 14.9314 93.4112 14.9314V33.3096L109.296 33.3039V25.4978H110.855C112.298 27.7914 115.364 33.3322 115.364 33.3322H119.118L114.223 25.2402C115.261 25.0052 116.029 24.6165 116.66 24.0584" fill="#006BA6"></path>
                                    <path fill-rule="evenodd" clip-rule="evenodd" d="M134.635 23.0657H131.98V17.6289H134.635C139.232 17.3713 139.035 23.3098 134.635 23.0657M139.377 16.3183C137.722 14.4156 131.56 15.0258 128.824 14.9376V25.7559V33.3169H131.98V25.7559C138.508 26.8903 144.151 21.8964 139.377 16.3183" fill="#006BA6"></path>
                                    <path fill-rule="evenodd" clip-rule="evenodd" d="M86.6696 22.5936C78.4897 19.8741 85.9384 15.1208 90.2428 18.1341V15.4891C82.2577 11.3403 74.3645 21.8513 84.8746 25.1584C93.4542 28.7423 84.0762 33.1306 79.7965 29.5738V32.4301C87.9988 37.1766 97.5604 26.7153 86.6696 22.5936" fill="#006BA6"></path>
                                    <path fill-rule="evenodd" clip-rule="evenodd" d="M283.566 29.8062V28.4775C285.972 28.1002 285.975 30.1836 283.566 29.8062V29.8062ZM283.566 30.3553H284.306L285.427 32.2162H286.15L284.937 30.3282C286.532 30.2209 286.387 27.6799 284.539 27.9262H282.921V32.2162H283.566V30.3553ZM284.342 33.7912C289.16 33.9313 289.177 26.2133 284.341 26.3489C279.483 26.2133 279.499 33.9324 284.342 33.7912V33.7912ZM281.344 30.0627C281.254 26.0393 287.419 26.028 287.328 30.0627C287.422 34.1222 281.249 34.1132 281.344 30.0627V30.0627Z" fill="#006BA6"></path>
                                    <path d="M306.494 14.9373V33.3289" stroke="#006BA6" stroke-width="1.13089"></path>
                                    <path d="M322.941 33.3432L331.14 15.0607H333.042L341.24 33.3432H339.056L336.948 28.5456H327.156L325.023 33.3432H322.941ZM327.953 26.6785H336.151L332.065 17.4465L327.953 26.6785Z" fill="#006BA6"></path>
                                    <path d="M351.779 33.6284C349.311 33.6284 347.718 32.2799 346.69 30.7758V33.3432H344.711V14.4124H346.69V22.633C347.769 21.0252 349.337 19.6508 351.779 19.6508C354.965 19.6508 358.127 22.1922 358.127 26.6007V26.6526C358.127 31.0352 354.991 33.6284 351.779 33.6284ZM351.419 31.8391C353.989 31.8391 356.096 29.9201 356.096 26.6785V26.6266C356.096 23.4629 353.937 21.4401 351.419 21.4401C348.951 21.4401 346.613 23.5407 346.613 26.6007V26.6526C346.613 29.7645 348.951 31.8391 351.419 31.8391Z" fill="#006BA6"></path>
                                    <path d="M368.1 33.6543C364.117 33.6543 361.212 30.4906 361.212 26.7044V26.6526C361.212 22.8664 364.142 19.6508 368.152 19.6508C372.135 19.6508 375.065 22.8146 375.065 26.6007V26.6526C375.065 30.4387 372.11 33.6543 368.1 33.6543ZM368.152 31.865C371.03 31.865 373.035 29.5311 373.035 26.7044V26.6526C373.035 23.7741 370.902 21.4142 368.1 21.4142C365.222 21.4142 363.243 23.7741 363.243 26.6007V26.6526C363.243 29.5311 365.35 31.865 368.152 31.865Z" fill="#006BA6"></path>
                                    <path d="M383.79 33.6284C380.578 33.6284 378.702 31.4501 378.702 28.2604V19.936H380.681V27.7677C380.681 30.2572 382.017 31.8131 384.356 31.8131C386.617 31.8131 388.339 30.1275 388.339 27.6121V19.936H390.293V33.3432H388.339V31.0092C387.44 32.4614 386.078 33.6284 383.79 33.6284Z" fill="#006BA6"></path>
                                    <path d="M399.448 33.5765C397.314 33.5765 395.695 32.5133 395.695 29.7904V21.6995H393.845V19.936H395.695V15.8906H397.674V19.936H401.889V21.6995H397.674V29.5311C397.674 31.1648 398.574 31.7613 399.91 31.7613C400.578 31.7613 401.144 31.6316 401.838 31.2945V33.006C401.144 33.3691 400.399 33.5765 399.448 33.5765Z" fill="#006BA6"></path>
                                </svg>
